<?xml version="1.0" encoding="UTF-8"?>
<svg id="_Слой_1" data-name="Слой_1" xmlns="http://www.w3.org/2000/svg" version="1.1" viewBox="0 0 322.2 299.39">
  <!-- Generator: Adobe Illustrator 30.5.1, SVG Export Plug-In . SVG Version: 2.1.4 Build 3)  -->
  <defs>
    <style>
      .st0 {
        fill: #fff;
      }

      .st1 {
        opacity: .13;
      }

      .st2 {
        fill: #add3f2;
      }

      .st3 {
        fill: #010101;
      }
    </style>
  </defs>
  <g>
    <g>
      <path class="st0" d="M270.98,210.61c-.56,6.92-1.11,13.84-1.67,20.76,3.73,1.97,7.34,3.84,10.81,5.9-14.42.3-29.08.55-43.75.8,3.99-2.12,8.1-3.78,12.21-5.44-.36-6.7-1.04-13.64-1.42-20.36,1.83-.6,3.82-.49,5.76-.44,5.93.17,11.88-.2,18.05-1.2Z"/>
      <path class="st3" d="M236.38,238.58c-.24,0-.45-.16-.5-.39-.06-.23.05-.48.26-.59,3.9-2.07,7.97-3.73,11.92-5.33-.18-3.35-.45-6.81-.71-10.16-.25-3.24-.51-6.58-.69-9.83-.01-.24.13-.45.36-.53,1.8-.59,3.71-.53,5.57-.48h.37c6.1.18,11.97-.21,17.95-1.18.16-.03.32.02.44.13.12.11.18.27.17.43l-1.64,20.41,1.26.66c3.23,1.7,6.27,3.31,9.27,5.08.2.12.3.36.24.58-.06.23-.26.38-.49.39-14.42.3-29.33.55-43.75.8h0ZM247.72,212.64c.18,3.1.43,6.3.67,9.39.27,3.48.55,7.08.73,10.56.01.22-.12.43-.33.51-3.36,1.36-6.81,2.75-10.17,4.4,13.09-.22,26.54-.45,39.63-.72-2.46-1.41-4.98-2.73-7.62-4.13l-1.56-.83c-.18-.1-.29-.3-.28-.5l1.61-20.09c-5.82.91-11.55,1.27-17.49,1.1h-.37c-1.63-.06-3.3-.11-4.83.3Z"/>
    </g>
    <g>
      <path class="st0" d="M321.67,133.85c-1.66,34.68-2.2,57.07-2.2,80.1-38.66-.59-83.83,0-122.24,0,.88-20.51,1.21-50.72-.08-81.47,41.71.82,84.44.69,124.52,1.37Z"/>
      <path class="st3" d="M319.48,214.48h0c-26.02-.4-54.92-.26-82.87-.13-13.79.07-26.81.13-39.37.13-.14,0-.28-.06-.38-.16-.1-.1-.15-.24-.14-.38,1.06-24.64,1.03-55.08-.08-81.43,0-.14.05-.28.15-.39.1-.1.24-.16.38-.16,22.36.44,45.26.61,67.4.77,18.94.14,38.53.28,57.12.6.14,0,.28.06.37.16.1.1.15.24.14.38-1.58,33.03-2.2,55.49-2.2,80.08,0,.14-.06.27-.16.37-.1.1-.23.15-.37.15ZM197.69,133.01c1.08,26.05,1.11,56.02.08,80.42,12.39,0,25.23-.06,38.82-.13,27.76-.13,56.46-.27,82.36.12,0-24.27.62-46.54,2.17-79.06-18.43-.31-37.81-.45-56.57-.59-21.97-.16-44.67-.33-66.86-.76Z"/>
    </g>
    <g>
      <path class="st2" d="M297.41,203.08c-17.66-.08-35.32-.25-52.98-.43-14.94-.15-31.85-.12-46.79-.34,0,4.75-.02,8.28-.41,11.64,38.41,0,83.58-.63,122.24,0,.22-2.94.06-7.1.06-10.74-6.5,0-15.63-.11-22.13-.13Z"/>
      <path class="st3" d="M319.48,214.48h0c-26.02-.42-54.92-.28-82.87-.14-13.79.07-26.81.14-39.37.14-.15,0-.29-.06-.39-.17-.1-.11-.15-.26-.13-.41.38-3.23.4-6.53.4-11.58,0-.14.06-.27.16-.37s.25-.15.37-.15c8.53.12,17.82.17,26.8.21,6.68.03,13.59.06,19.99.13,16.35.17,34.88.36,52.98.43,2.66.01,5.75.04,8.93.06,4.6.04,9.35.07,13.19.07.29,0,.52.23.52.52,0,1.07.01,2.19.03,3.3.03,2.64.07,5.38-.09,7.47-.02.27-.25.48-.52.48ZM198.16,202.84c0,4.5-.04,7.61-.35,10.59,12.37,0,25.21-.07,38.78-.14,27.77-.14,56.49-.29,82.39.13.11-1.98.08-4.47.05-6.89-.01-.94-.02-1.88-.03-2.8-3.75,0-8.29-.04-12.68-.07-3.18-.02-6.27-.05-8.93-.06h0c-18.09-.08-36.63-.27-52.98-.43-6.4-.07-13.31-.1-19.99-.13-8.8-.04-17.88-.08-26.28-.2Z"/>
    </g>
    <g>
      <g class="st1">
        <path class="st3" d="M269.74,216.81s-.09.07-.14.1c.32-.23.3-.22.14-.1Z"/>
      </g>
      <g class="st1">
        <path class="st3" d="M269.39,213.58c-1.45-.34-2.98-.1-4.47-.16-1.98,0-3.95-.24-5.92-.46-2.26-.27-4.53-.2-6.8-.27-.21-.01-.69-.06-.95-.09-.01,0-.03,0-.04,0-.13-.02-.25-.04-.38-.05-.01,0-.01,0-.03,0-.64-.16-1.41.04-1.78.56-.29.31-.4.74-.34,1.15-.16.07-.31.16-.44.29-1.1.96-.27,2.83,1.25,2.78,3.84.24,7.68.38,11.53.45,3.37.12,4.99.06,7.63-.48.3-.1.61-.21.89-.36.08-.06.15-.1.2-.14.26-.17.49-.37.66-.62.71-.94.17-2.29-1.02-2.61Z"/>
      </g>
    </g>
  </g>
  <g>
    <g>
      <path class="st0" d="M206.17,177.2c0-31.03.26-64.91,1.52-97.44-54.61,0-106.58-.39-153.95-.39.41,32.04.82,64.35.82,97.83,45.19,0,100.1-1.77,151.6,0Z"/>
      <path class="st3" d="M206.17,177.72s-.01,0-.02,0c-34.95-1.2-70.8-.78-105.47-.37-16.25.19-31.6.37-46.12.37-.29,0-.52-.23-.52-.52,0-33.16-.41-65.57-.81-96.92v-.91c-.01-.14.04-.27.14-.37.1-.1.23-.16.37-.16,22.84,0,46.48.09,71.51.18,26.63.1,54.16.2,82.43.2.14,0,.28.06.38.16s.15.24.15.38c-1.35,34.71-1.52,70.3-1.52,97.42,0,.14-.06.28-.16.38-.1.09-.23.15-.36.15ZM54.27,79.89v.38c.4,31.18.81,63.43.82,96.41,14.36,0,29.53-.18,45.58-.37,34.5-.41,70.17-.83,104.98.35,0-26.92.18-62.05,1.5-96.38-28.09,0-55.44-.1-81.9-.2-24.84-.09-48.31-.18-70.98-.18Z"/>
    </g>
    <g>
      <path class="st0" d="M179.78,74.46c-22.22-.07-44.44-.25-66.66-.42-18.8-.15-40.58.2-59.39,0-.23,4.51-.26,8.09,0,11,48.33,0,105.16-.61,153.8,0,.27-2.86.08-6.9.08-10.44-8.18,0-19.67-.1-27.84-.13Z"/>
      <path class="st3" d="M207.54,85.55h0c-32.74-.41-69.1-.27-104.26-.13-17.35.07-33.73.13-49.53.13-.27,0-.5-.21-.52-.48-.25-2.8-.25-6.32,0-11.07.01-.28.24-.49.52-.49h0c9.96.11,20.92.07,31.52.02,9.35-.04,19.03-.08,27.86-.01,20.57.16,43.88.35,66.65.42,3.34.01,7.22.03,11.21.06,5.79.03,11.78.07,16.62.07.29,0,.52.23.52.52,0,1.04.02,2.14.03,3.21.04,2.57.08,5.24-.11,7.28-.03.27-.25.47-.52.47ZM54.23,74.55c-.21,4.19-.21,7.38-.02,9.95,15.65,0,31.88-.06,49.05-.13,34.99-.14,71.17-.28,103.8.13.14-1.92.11-4.34.07-6.69-.01-.9-.03-1.82-.03-2.71-4.75,0-10.52-.04-16.11-.07-3.99-.02-7.88-.05-11.21-.06-22.78-.08-46.09-.26-66.66-.42-8.83-.07-18.5-.03-27.85.01-10.42.04-21.2.09-31.04-.01Z"/>
    </g>
    <path class="st3" d="M60.31,80.3c-.28,0-.51-.22-.52-.51,0-.29.22-.53.51-.54l6.17-.19c.29,0,.53.22.54.51,0,.29-.22.53-.51.54l-6.17.19s-.01,0-.02,0Z"/>
    <path class="st3" d="M73.74,79.9c-.29,0-.52-.23-.52-.52,0-.29.23-.52.52-.52l6.17-.02h0c.29,0,.52.23.52.52,0,.29-.23.52-.52.52l-6.17.02h0Z"/>
    <path class="st3" d="M86.51,79.89c-.28,0-.51-.22-.52-.51,0-.29.22-.53.51-.54l6.17-.19c.29-.01.53.22.54.51,0,.29-.22.53-.51.54l-6.17.19s-.01,0-.02,0Z"/>
  </g>
  <g>
    <path class="st3" d="M196.68,98.38h0l-35.05-.2c-.1,0-.17-.08-.17-.17,0-.1.08-.18.17-.17l35.05.2c.1,0,.17.08.17.17,0,.1-.08.17-.17.17Z"/>
    <path class="st3" d="M196.68,105.68h0l-24.45-.2c-.1,0-.17-.08-.17-.18,0-.1.08-.17.17-.17h0l24.45.2c.1,0,.17.08.17.18,0,.1-.08.17-.17.17Z"/>
    <path class="st3" d="M196.68,112.97h0l-30.45-.15c-.1,0-.17-.08-.17-.17,0-.1.08-.17.17-.17h0l30.45.15c.1,0,.17.08.17.17,0,.1-.08.17-.17.17Z"/>
  </g>
  <g class="st1">
    <path class="st3" d="M54.2,86.13c.15-.56.75-.77,1.27-.69.83,0,1.67,0,2.5.03,2.13.03,4.26-.05,6.39-.04,3.18.04,6.37-.05,9.55-.05,5.18,0,25.76-.45,32.69-.5,9.77-.08,58.87.39,61.12.38,1.92,0,9.58-.19,11.84-.2,2.01,0,4.01.13,6.02.17,2.69.08,5.38-.17,8.08-.24,4.11-.12,8.23-.3,12.33.02,1.42.01,1.6,2.21,0,2.29-6.79-.54-13.61-.1-20.41-.02-2.16.05-4.32-.06-6.49-.07-3.02.04-6.04.12-9.06.27-2,.02-3.99-.1-5.99-.14-2.09-.02-4.19.05-6.28.04-6.12.04-12.23-.07-18.35-.15-4-.01-8,.22-12,.21-4.95-.16-9.91.06-14.87-.02-7.12,0-14.24-.09-21.37.06-2.43.05-4.87.08-7.31,0-1.98-.07-3.95-.26-5.92-.28-2.36-.08-4.72.02-7.08.05-2.91.07-5.82.02-8.73.02-1.82,0-3.64.07-5.46.09-.64-.05-1.32.07-1.94-.12-.44-.15-.68-.68-.55-1.12Z"/>
  </g>
  <g>
    <g>
      <path class="st3" d="M161.77,204.97c-.14,0-.27-.05-.37-.16-.2-.21-.2-.54,0-.74l32.19-31.35-.17-33.99c0-.29.23-.52.52-.52h0c.29,0,.52.23.52.52l.17,34.22c0,.14-.06.28-.16.38l-32.35,31.51c-.1.1-.23.15-.36.15Z"/>
      <path class="st3" d="M221.78,197.53c-.12,0-.24-.04-.34-.13l-27.32-23.89c-.22-.19-.24-.52-.05-.74.19-.22.52-.24.74-.05l27.32,23.89c.22.19.24.52.05.74-.1.12-.25.18-.39.18Z"/>
    </g>
    <g>
      <ellipse class="st0" cx="194.08" cy="176.18" rx="11.23" ry="11.65"/>
      <path class="st3" d="M194.08,188.35c-6.48,0-11.75-5.46-11.75-12.17s5.27-12.17,11.75-12.17,11.75,5.46,11.75,12.17-5.27,12.17-11.75,12.17ZM194.08,165.05c-5.9,0-10.71,4.99-10.71,11.13s4.8,11.13,10.71,11.13,10.71-4.99,10.71-11.13-4.8-11.13-10.71-11.13Z"/>
    </g>
    <g>
      <path class="st2" d="M156.02,204.51c0-3.55,2.81-6.43,6.28-6.43s6.28,2.88,6.28,6.43-2.81,6.43-6.28,6.43-6.28-2.88-6.28-6.43Z"/>
      <path class="st3" d="M162.29,211.46c-3.75,0-6.8-3.12-6.8-6.96s3.05-6.96,6.8-6.96,6.8,3.12,6.8,6.96-3.05,6.96-6.8,6.96ZM162.29,198.6c-3.17,0-5.76,2.65-5.76,5.91s2.58,5.91,5.76,5.91,5.76-2.65,5.76-5.91-2.58-5.91-5.76-5.91Z"/>
    </g>
    <g>
      <path class="st0" d="M188.12,139.91c0-3.55,2.81-6.43,6.28-6.43s6.28,2.88,6.28,6.43-2.81,6.43-6.28,6.43-6.28-2.88-6.28-6.43Z"/>
      <path class="st3" d="M194.39,146.87c-3.75,0-6.8-3.12-6.8-6.96s3.05-6.96,6.8-6.96,6.8,3.12,6.8,6.96-3.05,6.96-6.8,6.96ZM194.39,134c-3.17,0-5.76,2.65-5.76,5.91s2.58,5.91,5.76,5.91,5.76-2.65,5.76-5.91-2.58-5.91-5.76-5.91Z"/>
    </g>
    <g>
      <path class="st0" d="M219.49,201.9c0-3.55,2.81-6.43,6.28-6.43s6.28,2.88,6.28,6.43-2.81,6.43-6.28,6.43-6.28-2.88-6.28-6.43Z"/>
      <path class="st3" d="M225.76,208.86c-3.75,0-6.8-3.12-6.8-6.96s3.05-6.96,6.8-6.96,6.8,3.12,6.8,6.96-3.05,6.96-6.8,6.96ZM225.76,195.99c-3.17,0-5.76,2.65-5.76,5.91s2.58,5.91,5.76,5.91,5.76-2.65,5.76-5.91-2.58-5.91-5.76-5.91Z"/>
    </g>
    <path class="st3" d="M192.9,142.3s-.07-.01-.1-.03c-.7-.49-1.2-1.3-1.36-2.22-.16-.92.03-1.85.53-2.55.06-.08.17-.1.24-.04.08.06.1.16.04.24-.44.62-.62,1.45-.47,2.28.14.83.59,1.56,1.22,1.99.08.05.1.16.04.24-.03.05-.09.07-.14.07Z"/>
    <path class="st3" d="M192.62,184.11s-.03,0-.04,0c-1.59-.37-3.22-.87-4.39-2.01-1.42-1.38-1.8-3.35-1.88-4.76-.12-2.17.37-4.32,1.41-6.22.05-.08.15-.12.24-.07.08.05.12.15.07.24-1.01,1.85-1.48,3.94-1.37,6.04.07,1.35.44,3.22,1.77,4.53,1.11,1.08,2.69,1.56,4.23,1.92.09.02.15.12.13.21-.02.08-.09.13-.17.13Z"/>
    <path class="st3" d="M161.63,208.15s-.04,0-.06-.01c-1.09-.41-1.95-1.42-2.32-2.7-.3-1.03-.28-2.24.05-3.58.02-.09.12-.15.21-.13.09.02.15.12.13.21-.32,1.28-.33,2.43-.05,3.4.34,1.17,1.12,2.09,2.11,2.47.09.03.13.13.1.22-.03.07-.09.11-.16.11Z"/>
    <path class="st3" d="M225.56,205.6c-1.15,0-2.29-.63-2.91-1.6-.62-.98-.7-2.29-.2-3.33.04-.09.15-.12.23-.08.09.04.12.15.08.23-.45.94-.38,2.12.18,3,.56.87,1.58,1.44,2.62,1.44,0,0,.02,0,.02,0,.1,0,.17.08.17.17,0,.1-.08.17-.17.18h-.02Z"/>
    <g class="st1">
      <path class="st3" d="M199.89,143.24c-.03-.5-.58-.92-1.07-.82-.41.04-.71.39-1.03.62-.08.09-.29.28-.35.35-.98.64-2.83.93-3.7.69-1.34-.18-1.54-.16-2.73-.74.44.19,0,0-.25-.16-.05-.05-.25-.22-.39-.26-.93-.44-1.79.85-1.05,1.56,1.15,1.33,2.97,1.74,4.66,1.77,1.5.08,3.04-.19,4.27-1.1.36-.27.79-.44,1.1-.77.27-.33.64-.7.54-1.16Z"/>
    </g>
    <g class="st1">
      <path class="st3" d="M203.01,181.57c-.44,0-.69.33-.95.62-.42.45-.51.49-.53.51-1.61,1.31-2.51,1.83-4.47,2.34-2.62.62-6.06.21-8.41-1.08-.79-.45-1.11-.7-1.39-.94-.31-.24-.59-.56-1.01-.54-.85-.03-1.32,1.1-.7,1.68,2.67,2.43,6.47,3.67,10.05,3.18,2.77-.26,5.5-1.6,7.42-3.61.32-.4.85-.76.87-1.32.01-.47-.41-.88-.87-.87Z"/>
    </g>
    <g class="st1">
      <path class="st3" d="M168.1,206.69c-.38-.68-1.38-.65-1.78-.01-.78.8-.61.66-1.53,1.17-1.27.67-3.57,1.13-5.88-.62-.04-.03-.06-.05-.08-.06-.37-.33-.66-.8-1.21-.78-.88-.03-1.37,1.15-.73,1.75,2.15,2.99,6.5,3.52,9.41,1.34.5-.38.98-.81,1.4-1.28.43-.37.72-.98.39-1.51Z"/>
    </g>
    <g class="st1">
      <path class="st3" d="M232.01,203.61c-.18-.71-1.05-1.05-1.67-.68-.76.64-.28.41-.94,1.02-.86.85-.89.89-2,1.48-1.24.38-1.31.24-3.06-.13-.84-.21-.8-.19-1.1-.33-.9-.45-.92-.39-1.31-.62-1.37-1.24-3.03.71-1.54,1.78.52.38,1.06.74,1.67.96.63.2,1.27.37,1.92.53,2.16.44,4.53.17,6.21-1.36.48-.39.83-.56,1.52-1.5.27-.31.42-.73.3-1.13Z"/>
    </g>
  </g>
  <g>
    <path class="st3" d="M274.1,157.17c-.11,0-.22-.04-.3-.13l-11.63-12.23c-.16-.16-.15-.43.01-.58.16-.16.43-.15.58.01l11.63,12.23c.16.16.15.43-.01.58-.08.08-.18.11-.28.11Z"/>
    <path class="st3" d="M270.45,159.8c-.11,0-.21-.04-.29-.12l-10.59-10.69c-.16-.16-.16-.42,0-.58.16-.16.42-.16.58,0l10.59,10.69c.16.16.16.42,0,.58-.08.08-.19.12-.29.12Z"/>
    <path class="st3" d="M265,160.6c-.11,0-.21-.04-.29-.12l-6.64-6.77c-.16-.16-.16-.42,0-.58.16-.16.42-.16.58,0l6.64,6.77c.16.16.16.42,0,.58-.08.08-.18.12-.29.12Z"/>
    <path class="st3" d="M258.97,167.66c-.11,0-.22-.04-.3-.13-2.79-2.99-5.83-5.8-9.02-8.36-.18-.14-.21-.4-.06-.58.14-.18.4-.21.58-.06,3.23,2.58,6.29,5.42,9.11,8.44.16.17.15.43-.02.58-.08.07-.18.11-.28.11Z"/>
    <path class="st3" d="M257.91,172.64c-.11,0-.21-.04-.29-.12-3.78-3.78-7.71-7.5-11.69-11.06-.17-.15-.18-.41-.03-.58.15-.17.41-.18.58-.03,3.99,3.57,7.93,7.3,11.72,11.09.16.16.16.42,0,.58-.08.08-.19.12-.29.12Z"/>
    <path class="st3" d="M255.07,176.88c-.11,0-.22-.04-.3-.13-4-4.32-8.17-8.6-12.37-12.72-.16-.16-.17-.42,0-.58.16-.16.42-.17.58,0,4.21,4.13,8.38,8.42,12.4,12.75.15.17.14.43-.02.58-.08.07-.18.11-.28.11Z"/>
    <path class="st3" d="M250.66,178.64c-.1,0-.2-.04-.28-.11-3.73-3.4-7.4-6.95-10.91-10.56-.16-.16-.16-.42,0-.58.16-.16.42-.15.58,0,3.5,3.6,7.16,7.14,10.87,10.53.17.15.18.41.03.58-.08.09-.19.13-.3.13Z"/>
    <path class="st3" d="M241.11,187.29c-.12,0-.24-.05-.32-.15-2.72-3.37-5.71-6.57-8.89-9.51-.17-.15-.18-.42-.02-.58.16-.17.42-.18.58-.02,3.21,2.97,6.22,6.2,8.97,9.6.14.18.12.44-.06.58-.08.06-.17.09-.26.09Z"/>
    <path class="st3" d="M239.01,190.8c-.11,0-.22-.04-.3-.13l-10.7-11.13c-.16-.16-.15-.42.01-.58.16-.16.42-.15.58.01l10.7,11.13c.16.16.15.42-.01.58-.08.08-.18.12-.29.12Z"/>
    <path class="st3" d="M235.95,195.36c-.11,0-.22-.04-.3-.13l-11.72-12.54c-.16-.17-.15-.43.02-.58.17-.16.43-.15.58.02l11.72,12.54c.16.17.15.43-.02.58-.08.07-.18.11-.28.11Z"/>
    <g>
      <path class="st0" d="M237.25,197.21c4.2-4.31,6.54-8.96,6.36-14.98-.17-5.46-4.63-11.58-1.32-15.93,2.42-3.19,6.48-5.77,9.96-5.47,3.49.29,6.86,1.52,10.35,1.7,6.31.32,11.78-1.22,14.66-7.34.37-.78.41-1.75-.4-2.07-.8-.32-1.74.09-2.35.7-.61.61-1.02,1.4-1.55,2.08-2.18,2.77-6.17,3.35-9.67,2.96-3.5-.4-6.93-1.55-10.45-1.42-5.14.2-9.39,1.95-12.66,5.92-.93,1.13-2.27,3.64-2.63,5.06-1.08,4.25,2.4,8.3,2.86,12.67.48,4.48-2.25,8.61-4.96,12.21-.73.97-1.51,2.04-1.49,3.26.02,1.22,2.2,1.78,3.28.66Z"/>
      <path class="st3" d="M235.73,198.22c-.37,0-.72-.07-1.02-.19-.72-.29-1.15-.84-1.16-1.48-.02-1.4.86-2.57,1.58-3.51,2.6-3.45,5.34-7.51,4.88-11.92-.18-1.71-.86-3.41-1.51-5.06-.99-2.5-2.02-5.09-1.34-7.76.39-1.54,1.8-4.12,2.71-5.22,3.18-3.87,7.42-5.86,12.96-6.07,2.27-.09,4.51.35,6.68.77,1.26.25,2.56.5,3.84.65,1.96.22,6.79.4,9.3-2.8.19-.25.37-.51.55-.78.31-.46.62-.93,1.03-1.33.63-.63,1.74-1.21,2.79-.79.38.15.65.42.79.78.2.51.13,1.18-.18,1.84-2.58,5.48-7.5,7.96-15.05,7.57-1.88-.1-3.74-.49-5.54-.88-1.58-.34-3.21-.68-4.83-.82-3.09-.26-7.03,1.92-9.6,5.31-1.98,2.61-.97,5.96.09,9.5.61,2.04,1.25,4.14,1.31,6.17.18,5.71-1.88,10.57-6.48,15.28h0c-.51.52-1.18.72-1.81.72ZM253.42,157.83c-.19,0-.37,0-.56.01-5.29.21-9.33,2.09-12.36,5.77-.93,1.14-2.22,3.61-2.55,4.9-.61,2.41.32,4.76,1.31,7.25.67,1.7,1.37,3.46,1.56,5.27.48,4.48-2.14,8.66-5.04,12.5-.64.84-1.43,1.89-1.41,3,0,.44.49.67.64.73.55.22,1.39.21,1.93-.35h0c4.43-4.54,6.41-9.21,6.24-14.68-.06-1.92-.68-3.97-1.28-5.96-1.08-3.58-2.2-7.29.04-10.23,2.23-2.94,6.42-5.96,10.33-5.63,1.67.14,3.33.49,4.93.84,1.77.38,3.59.77,5.41.86,7.27.37,11.8-1.88,14.26-7.1.21-.45.27-.9.16-1.19-.06-.15-.17-.25-.33-.32-.64-.25-1.42.12-1.91.61-.35.35-.63.77-.93,1.21-.19.28-.38.56-.59.83-1.95,2.48-5.61,3.61-10.04,3.11-1.31-.15-2.63-.41-3.9-.66-1.94-.38-3.94-.77-5.93-.77Z"/>
    </g>
    <g>
      <path class="st0" d="M221.72,181.6c4.33-4.18,9-6.5,15.01-6.29,5.46.19,11.55,4.68,15.93,1.4,3.2-2.4,5.8-6.45,5.52-9.94-.28-3.49-1.48-6.86-1.65-10.36-.29-6.31,1.28-11.77,7.41-14.62.79-.37,1.75-.4,2.07.41.32.81-.1,1.74-.71,2.35-.61.61-1.4,1.01-2.09,1.54-2.78,2.16-3.38,6.15-3,9.65.38,3.5,1.52,6.94,1.37,10.46-.22,5.14-1.99,9.38-5.98,12.63-1.14.92-3.65,2.25-5.07,2.6-4.26,1.06-8.29-2.44-12.65-2.92-4.48-.5-8.62,2.2-12.23,4.9-.98.73-2.05,1.5-3.27,1.48-1.22-.02-1.77-2.2-.64-3.29Z"/>
      <path class="st3" d="M222.42,185.3s-.04,0-.06,0c-.64-.01-1.19-.45-1.47-1.17-.31-.8-.28-2.03.55-2.83,4.74-4.57,9.6-6.6,15.31-6.4,2.03.07,4.13.72,6.17,1.34,3.53,1.09,6.87,2.11,9.5.14,3.4-2.55,5.6-6.49,5.36-9.57-.13-1.62-.47-3.25-.8-4.83-.38-1.8-.76-3.66-.85-5.54-.35-7.55,2.15-12.46,7.64-15.01.67-.31,1.34-.37,1.84-.17.36.15.63.42.78.8.41,1.05-.18,2.16-.8,2.79-.41.41-.88.72-1.34,1.02-.28.18-.54.36-.79.55-3.21,2.49-3.06,7.32-2.85,9.28.14,1.28.39,2.58.63,3.84.41,2.17.84,4.42.74,6.68-.24,5.54-2.25,9.77-6.14,12.93-1.11.9-3.69,2.3-5.23,2.68-2.67.66-5.25-.37-7.75-1.38-1.64-.66-3.34-1.35-5.05-1.53-4.41-.49-8.47,2.23-11.94,4.82-.93.7-2.09,1.56-3.46,1.56ZM235.99,175.71c-5.16,0-9.62,1.98-13.98,6.18h0c-.56.54-.57,1.38-.36,1.93.06.15.28.64.72.65,1.12.02,2.16-.76,3.01-1.4,3.86-2.88,8.04-5.48,12.52-4.98,1.82.2,3.57.91,5.27,1.59,2.49,1,4.83,1.94,7.24,1.34,1.29-.32,3.77-1.59,4.91-2.52,3.69-3.01,5.6-7.04,5.83-12.33.09-2.17-.32-4.36-.73-6.49-.24-1.27-.49-2.59-.64-3.91-.48-4.43.67-8.09,3.16-10.02.27-.21.56-.4.84-.59.44-.29.86-.57,1.21-.92.49-.49.87-1.27.62-1.91-.06-.17-.17-.27-.32-.33-.29-.11-.74-.06-1.19.15-5.23,2.43-7.51,6.95-7.17,14.23.08,1.82.47,3.64.83,5.41.33,1.6.68,3.26.81,4.94.31,3.91-2.73,8.08-5.68,10.3-2.96,2.22-6.66,1.09-10.23-.01-1.98-.61-4.03-1.24-5.95-1.31-.25,0-.49-.01-.73-.01ZM221.72,181.6h0,0Z"/>
    </g>
    <path class="st3" d="M223.03,182.92s-.07-.01-.09-.04c-.06-.05-.06-.14-.01-.19,1.13-1.26,2.46-2.32,3.93-3.14.07-.04.15-.01.19.05.04.07.01.15-.05.19-1.45.81-2.75,1.85-3.86,3.09-.03.03-.06.05-.1.05Z"/>
    <path class="st3" d="M236.03,196.57s-.06,0-.09-.03c-.06-.05-.07-.13-.02-.19l1.8-2.23c.05-.06.13-.07.19-.02.06.05.07.13.02.19l-1.8,2.23s-.07.05-.11.05Z"/>
    <path class="st3" d="M260.12,146.55s-.05,0-.07-.02c-.06-.04-.08-.13-.04-.19.95-1.47,2.36-2.64,3.98-3.3.07-.03.15,0,.18.07.03.07,0,.15-.07.18-1.56.64-2.93,1.78-3.85,3.2-.03.04-.07.06-.12.06Z"/>
    <path class="st3" d="M274.01,157.78s-.06,0-.08-.03c-.06-.05-.07-.13-.02-.19l1.98-2.53c.05-.06.13-.07.19-.02s.07.13.02.19l-1.98,2.53s-.07.05-.11.05Z"/>
    <g class="st1">
      <path class="st3" d="M237.79,195.93c-.16-.15-.39-.22-.6-.21-.12,0-.35.1-.38.12,0,0,0,0,0,0-.11.04-.22.08-.33.11-.06,0-.15.02-.23.02-.05-.02-.1-.03-.15-.05-.07-.03-.22-.09-.33-.12-.37-.09-.74-.35-1.12-.24-1.01.17-1,1.67,0,1.86.45.13.97.31,1.44.23,0,0,0,0,0,0,.5-.02,1-.13,1.45-.35.58-.18.75-1,.28-1.39Z"/>
    </g>
    <g class="st1">
      <path class="st3" d="M223.46,183.4c-.07-.01-.15-.03-.21-.04-.55-.25-.33-.09-.7-.44-.04-.05-.09-.12-.12-.19-.03-.08-.14-.34-.24-.42-.62-.76-1.86-.03-1.54.88.42,1.1,1.53,2,2.75,1.83.97-.07,1.02-1.5.05-1.63Z"/>
    </g>
  </g>
  <g>
    <path class="st3" d="M290.49,148.99c-.09,0-.17-.07-.17-.17,0-.1.07-.18.17-.18,5.24-.25,10.55-.29,15.8-.12.1,0,.17.08.17.18,0,.1-.07.18-.18.17-5.23-.17-10.54-.13-15.77.12,0,0,0,0,0,0Z"/>
    <path class="st3" d="M296.28,156.4c-.09,0-.16-.07-.17-.16,0-.1.06-.18.16-.19,2.59-.23,5.22-.26,7.82-.1.1,0,.17.09.16.18,0,.1-.08.17-.18.16-2.58-.16-5.19-.12-7.77.1,0,0-.01,0-.02,0Z"/>
  </g>
  <g>
    <path class="st2" d="M47.63,43.12c0-2.44,1.98-4.42,4.42-4.42s4.42,1.98,4.42,4.42-1.98,4.42-4.42,4.42-4.42-1.98-4.42-4.42Z"/>
    <path class="st3" d="M52.05,48.06c-2.72,0-4.94-2.22-4.94-4.94s2.22-4.94,4.94-4.94,4.94,2.22,4.94,4.94-2.22,4.94-4.94,4.94ZM52.05,39.23c-2.15,0-3.9,1.75-3.9,3.9s1.75,3.9,3.9,3.9,3.9-1.75,3.9-3.9-1.75-3.9-3.9-3.9Z"/>
  </g>
  <g>
    <path class="st2" d="M4.18,269.35c0-2.44,1.98-4.42,4.42-4.42s4.42,1.98,4.42,4.42-1.98,4.42-4.42,4.42-4.42-1.98-4.42-4.42Z"/>
    <path class="st3" d="M8.59,274.29c-2.72,0-4.94-2.22-4.94-4.94s2.22-4.94,4.94-4.94,4.94,2.22,4.94,4.94-2.22,4.94-4.94,4.94ZM8.59,265.45c-2.15,0-3.9,1.75-3.9,3.9s1.75,3.9,3.9,3.9,3.9-1.75,3.9-3.9-1.75-3.9-3.9-3.9Z"/>
  </g>
  <g>
    <path class="st2" d="M174.74,243.42c0-2.44,1.98-4.42,4.42-4.42s4.42,1.98,4.42,4.42-1.98,4.42-4.42,4.42-4.42-1.98-4.42-4.42Z"/>
    <path class="st3" d="M179.16,248.36c-2.72,0-4.94-2.22-4.94-4.94s2.22-4.94,4.94-4.94,4.94,2.22,4.94,4.94-2.22,4.94-4.94,4.94ZM179.16,239.52c-2.15,0-3.9,1.75-3.9,3.9s1.75,3.9,3.9,3.9,3.9-1.75,3.9-3.9-1.75-3.9-3.9-3.9Z"/>
  </g>
  <g>
    <path class="st2" d="M237.11,112.47c0-2.44,1.98-4.42,4.42-4.42s4.42,1.98,4.42,4.42-1.98,4.42-4.42,4.42-4.42-1.98-4.42-4.42Z"/>
    <path class="st3" d="M241.52,117.41c-2.72,0-4.94-2.22-4.94-4.94s2.22-4.94,4.94-4.94,4.94,2.22,4.94,4.94-2.22,4.94-4.94,4.94ZM241.52,108.57c-2.15,0-3.9,1.75-3.9,3.9s1.75,3.9,3.9,3.9,3.9-1.75,3.9-3.9-1.75-3.9-3.9-3.9Z"/>
  </g>
  <g>
    <path class="st3" d="M155.32,52.59c-.9,0-1.81-.05-2.7-.14-.29-.03-.49-.29-.46-.57.03-.29.29-.5.57-.46,1.35.14,2.73.17,4.08.09.28-.02.53.2.55.49.02.29-.2.53-.49.55-.51.03-1.04.05-1.55.05ZM160.97,51.95c-.24,0-.45-.16-.51-.4-.06-.28.11-.56.39-.63,1.32-.3,2.63-.72,3.89-1.24.27-.11.57.02.68.28.11.27-.02.57-.28.68-1.31.54-2.67.98-4.05,1.3-.04,0-.08.01-.12.01ZM148.59,51.67s-.09,0-.14-.02c-1.36-.38-2.71-.88-3.99-1.48-.26-.12-.37-.43-.25-.69.12-.26.43-.37.69-.25,1.23.58,2.52,1.05,3.83,1.42.28.08.44.36.36.64-.06.23-.27.38-.5.38ZM168.64,48.77c-.17,0-.34-.09-.44-.24-.15-.24-.08-.57.16-.72,1.15-.72,2.25-1.54,3.27-2.45.22-.19.55-.17.74.04.19.22.17.55-.04.74-1.06.94-2.21,1.8-3.4,2.55-.09.05-.18.08-.28.08ZM141.06,48.14c-.1,0-.21-.03-.3-.09-1.16-.81-2.27-1.71-3.29-2.7-.21-.2-.21-.53-.01-.74.2-.21.53-.21.74-.01.98.95,2.04,1.82,3.15,2.59.24.16.3.49.13.73-.1.15-.26.23-.43.23ZM174.86,43.26c-.12,0-.23-.04-.33-.12-.22-.18-.26-.51-.08-.73.86-1.06,1.63-2.19,2.3-3.37.14-.25.46-.34.71-.2.25.14.34.46.2.71-.7,1.23-1.5,2.42-2.39,3.52-.1.13-.25.19-.41.19ZM135.1,42.36c-.16,0-.32-.07-.42-.21-.84-1.14-1.59-2.36-2.23-3.62-.13-.26-.03-.57.23-.7.26-.13.57-.03.7.23.61,1.21,1.33,2.38,2.14,3.47.17.23.12.56-.11.73-.09.07-.2.1-.31.1ZM178.94,36.02c-.06,0-.12-.01-.18-.03-.27-.1-.41-.4-.31-.67.46-1.28.82-2.6,1.06-3.94.05-.28.32-.47.61-.42.28.05.47.32.42.61-.25,1.39-.63,2.78-1.11,4.11-.08.21-.28.34-.49.34ZM131.35,34.95c-.22,0-.43-.14-.5-.37-.42-1.35-.73-2.75-.92-4.15-.04-.29.16-.55.45-.59.28-.04.55.16.59.45.18,1.35.48,2.69.88,3.98.09.28-.07.57-.34.65-.05.02-.1.02-.16.02ZM180.43,27.85h0c-.29,0-.52-.24-.51-.53,0-.12,0-.25,0-.37,0-1.24-.09-2.49-.28-3.7-.04-.29.15-.55.44-.59.29-.04.55.15.59.44.19,1.27.29,2.57.29,3.86,0,.13,0,.26,0,.38,0,.29-.24.51-.52.51ZM130.21,27.48c-.29,0-.52-.23-.52-.52,0-1.42.12-2.85.35-4.24.05-.28.32-.48.6-.43.28.05.48.32.43.6-.22,1.33-.33,2.7-.33,4.07,0,.29-.23.52-.52.52ZM179.19,19.64c-.22,0-.42-.14-.5-.36-.42-1.29-.96-2.55-1.59-3.76-.13-.26-.04-.57.22-.7.26-.13.57-.04.7.22.66,1.25,1.22,2.57,1.66,3.92.09.27-.06.57-.33.66-.05.02-.11.03-.16.03ZM131.58,19.28c-.06,0-.11,0-.17-.03-.27-.09-.42-.39-.32-.66.46-1.34,1.04-2.65,1.72-3.89.14-.25.45-.35.71-.21.25.14.35.45.21.71-.65,1.19-1.21,2.45-1.65,3.73-.07.22-.28.35-.49.35ZM175.32,12.29c-.16,0-.31-.07-.42-.21-.82-1.08-1.74-2.1-2.73-3.03-.21-.2-.22-.53-.02-.74.2-.21.53-.22.74-.02,1.03.97,1.99,2.03,2.85,3.16.17.23.13.56-.1.73-.09.07-.21.11-.32.11ZM135.56,11.99c-.11,0-.23-.04-.32-.11-.23-.18-.27-.51-.09-.73.87-1.11,1.85-2.16,2.89-3.12.21-.19.54-.18.74.03.19.21.18.54-.03.74-1,.92-1.94,1.92-2.78,2.99-.1.13-.26.2-.41.2ZM169.28,6.59c-.1,0-.2-.03-.29-.09-1.13-.76-2.33-1.42-3.57-1.98-.26-.12-.38-.43-.26-.69.12-.26.43-.38.69-.26,1.29.58,2.54,1.28,3.72,2.07.24.16.3.48.14.72-.1.15-.27.23-.43.23ZM141.69,6.39c-.17,0-.34-.08-.44-.24-.16-.24-.09-.56.15-.72,1.19-.77,2.45-1.45,3.75-2.01.26-.11.57,0,.69.27.11.26,0,.57-.27.69-1.24.54-2.45,1.19-3.6,1.93-.09.06-.19.08-.28.08ZM161.7,3.18s-.09,0-.13-.02c-1.31-.34-2.66-.58-4.02-.7-.29-.03-.5-.28-.47-.57.03-.29.28-.5.57-.47,1.41.13,2.82.37,4.19.73.28.07.45.36.37.64-.06.23-.27.39-.5.39ZM149.31,3.09c-.23,0-.45-.16-.51-.4-.07-.28.1-.56.38-.63,1.37-.34,2.79-.56,4.2-.67.29-.02.54.19.56.48.02.29-.19.54-.48.56-1.36.1-2.71.32-4.03.64-.04.01-.08.02-.12.02Z"/>
    <g>
      <path class="st2" d="M149.05,26.67c0-3.89,3.15-7.04,7.04-7.04s7.04,3.15,7.04,7.04-3.15,7.04-7.04,7.04-7.04-3.15-7.04-7.04Z"/>
      <path class="st3" d="M156.1,34.24c-4.17,0-7.56-3.39-7.56-7.56s3.39-7.56,7.56-7.56,7.56,3.39,7.56,7.56-3.39,7.56-7.56,7.56ZM156.1,20.15c-3.6,0-6.52,2.93-6.52,6.52s2.93,6.52,6.52,6.52,6.52-2.93,6.52-6.52-2.93-6.52-6.52-6.52Z"/>
    </g>
    <g>
      <ellipse class="st0" cx="167.6" cy="5.04" rx="4.69" ry="4.52"/>
      <path class="st3" d="M167.6,10.09c-2.88,0-5.22-2.26-5.22-5.04s2.34-5.04,5.22-5.04,5.22,2.26,5.22,5.04-2.34,5.04-5.22,5.04ZM167.6,1.04c-2.3,0-4.17,1.79-4.17,4s1.87,4,4.17,4,4.17-1.79,4.17-4-1.87-4-4.17-4Z"/>
    </g>
  </g>
  <g>
    <path class="st0" d="M48.93,254.85c0-1.72,1.4-3.12,3.12-3.12s3.12,1.4,3.12,3.12-1.4,3.12-3.12,3.12-3.12-1.4-3.12-3.12Z"/>
    <path class="st3" d="M52.05,258.5c-2.01,0-3.64-1.63-3.64-3.64s1.63-3.64,3.64-3.64,3.64,1.63,3.64,3.64-1.63,3.64-3.64,3.64ZM52.05,252.26c-1.43,0-2.6,1.17-2.6,2.6s1.17,2.6,2.6,2.6,2.6-1.17,2.6-2.6-1.17-2.6-2.6-2.6Z"/>
  </g>
  <g>
    <path class="st0" d="M190.91,270.97c0-1.72,1.4-3.12,3.12-3.12s3.12,1.4,3.12,3.12-1.4,3.12-3.12,3.12-3.12-1.4-3.12-3.12Z"/>
    <path class="st3" d="M194.03,274.62c-2.01,0-3.64-1.63-3.64-3.64s1.63-3.64,3.64-3.64,3.64,1.63,3.64,3.64-1.63,3.64-3.64,3.64ZM194.03,268.37c-1.43,0-2.6,1.17-2.6,2.6s1.17,2.6,2.6,2.6,2.6-1.17,2.6-2.6-1.17-2.6-2.6-2.6Z"/>
  </g>
  <g>
    <circle class="st0" cx="226.72" cy="293.45" r="5.42"/>
    <path class="st3" d="M226.72,299.39c-3.27,0-5.94-2.66-5.94-5.94s2.66-5.94,5.94-5.94,5.94,2.66,5.94,5.94-2.66,5.94-5.94,5.94ZM226.72,288.56c-2.7,0-4.89,2.2-4.89,4.89s2.2,4.9,4.89,4.9,4.9-2.2,4.9-4.9-2.2-4.89-4.9-4.89Z"/>
  </g>
  <g>
    <circle class="st0" cx="92.36" cy="51.05" r="3.12"/>
    <path class="st3" d="M92.36,54.69c-2.01,0-3.64-1.63-3.64-3.64s1.63-3.64,3.64-3.64,3.64,1.63,3.64,3.64-1.63,3.64-3.64,3.64ZM92.36,48.45c-1.43,0-2.6,1.17-2.6,2.6s1.17,2.6,2.6,2.6,2.6-1.17,2.6-2.6-1.17-2.6-2.6-2.6Z"/>
  </g>
  <g>
    <circle class="st0" cx="12.47" cy="84.49" r="5.13"/>
    <path class="st3" d="M12.47,90.14c-3.12,0-5.65-2.54-5.65-5.65s2.54-5.65,5.65-5.65,5.65,2.54,5.65,5.65-2.54,5.65-5.65,5.65ZM12.47,79.88c-2.54,0-4.61,2.07-4.61,4.61s2.07,4.61,4.61,4.61,4.61-2.07,4.61-4.61-2.07-4.61-4.61-4.61Z"/>
  </g>
  <path class="st3" d="M14.55,96.78c-.25,0-.47-.18-.51-.43-.05-.28.14-.55.42-.6,1.32-.23,2.57-.69,3.73-1.36.25-.14.57-.06.71.19.14.25.06.57-.19.71-1.26.73-2.63,1.23-4.07,1.48-.03,0-.06,0-.09,0ZM10.4,96.78s-.06,0-.09,0c-1.44-.25-2.81-.75-4.07-1.48-.25-.14-.33-.46-.19-.71.14-.25.46-.33.71-.19,1.16.67,2.41,1.13,3.73,1.36.28.05.47.32.42.6-.04.25-.26.43-.51.43ZM21.63,92.7c-.12,0-.24-.04-.34-.12-.22-.19-.25-.51-.06-.73.86-1.03,1.53-2.18,1.99-3.44.1-.27.4-.41.67-.31.27.1.41.4.31.67-.5,1.37-1.23,2.63-2.17,3.75-.1.12-.25.19-.4.19ZM3.32,92.69c-.15,0-.3-.06-.4-.19-.94-1.12-1.67-2.38-2.17-3.75-.1-.27.04-.57.31-.67.27-.1.57.04.67.31.46,1.25,1.12,2.41,1.99,3.44.19.22.16.55-.06.73-.1.08-.22.12-.34.12ZM24.42,85.01c-.29,0-.52-.23-.52-.52,0-1.34-.23-2.66-.69-3.91-.1-.27.04-.57.31-.67.27-.1.57.04.67.31.5,1.37.75,2.8.75,4.27,0,.29-.23.52-.52.52ZM.52,85.01c-.29,0-.52-.23-.52-.52,0-1.47.25-2.9.75-4.27.1-.27.4-.41.67-.31.27.1.41.4.31.67-.46,1.25-.69,2.57-.69,3.91,0,.29-.23.52-.52.52ZM21.63,77.33c-.15,0-.3-.06-.4-.19-.86-1.03-1.88-1.89-3.04-2.55-.25-.14-.33-.46-.19-.71.14-.25.46-.33.71-.19,1.26.73,2.38,1.67,3.32,2.79.19.22.16.55-.06.73-.1.08-.22.12-.34.12ZM3.32,77.33c-.12,0-.24-.04-.34-.12-.22-.19-.25-.51-.06-.73.94-1.12,2.06-2.06,3.32-2.79.25-.14.57-.06.71.19.14.25.06.57-.19.71-1.16.67-2.18,1.53-3.04,2.55-.1.12-.25.19-.4.19ZM14.55,73.24s-.06,0-.09,0c-1.3-.23-2.67-.23-3.97,0-.28.05-.55-.14-.6-.42-.05-.28.14-.55.42-.6,1.42-.25,2.91-.25,4.33,0,.28.05.47.32.42.6-.04.25-.26.43-.51.43Z"/>
  <g>
    <g>
      <path class="st2" d="M269.13,78.56c0-3.89,3.15-7.04,7.04-7.04s7.04,3.15,7.04,7.04-3.15,7.04-7.04,7.04-7.04-3.15-7.04-7.04Z"/>
      <path class="st3" d="M276.17,86.12c-4.17,0-7.56-3.39-7.56-7.56s3.39-7.56,7.56-7.56,7.56,3.39,7.56,7.56-3.39,7.56-7.56,7.56ZM276.17,72.04c-3.6,0-6.52,2.93-6.52,6.52s2.93,6.52,6.52,6.52,6.52-2.93,6.52-6.52-2.93-6.52-6.52-6.52Z"/>
    </g>
    <path class="st3" d="M276.54,94.21c-.28,0-.51-.23-.52-.51,0-.29.22-.53.51-.53,1.35-.03,2.68-.25,3.96-.65.28-.08.57.07.65.34.09.28-.07.57-.34.65-1.37.42-2.8.66-4.25.69,0,0,0,0-.01,0ZM272.41,93.74s-.09,0-.13-.02c-1.4-.36-2.74-.91-3.98-1.63-.25-.15-.33-.46-.19-.71.14-.25.46-.33.71-.19,1.16.68,2.41,1.19,3.71,1.52.28.07.45.36.38.63-.06.24-.27.39-.51.39ZM284.41,91.77c-.17,0-.34-.08-.44-.24-.16-.24-.09-.56.15-.72,1.13-.73,2.15-1.62,3.03-2.63.19-.22.52-.24.74-.05.22.19.24.52.05.74-.95,1.08-2.04,2.03-3.25,2.82-.09.06-.19.08-.28.08ZM265.29,89.59c-.14,0-.27-.05-.37-.16-1-1.04-1.86-2.21-2.54-3.47-.14-.25-.04-.57.21-.71.25-.14.57-.04.71.21.64,1.18,1.43,2.27,2.37,3.24.2.21.19.54-.01.74-.1.1-.23.15-.36.15ZM289.84,85.57c-.07,0-.15-.02-.22-.05-.26-.12-.37-.43-.25-.7.58-1.21.98-2.5,1.21-3.83.05-.28.32-.48.6-.43.28.05.48.32.43.6-.24,1.42-.67,2.8-1.29,4.11-.09.19-.28.3-.47.3ZM261.39,82.34c-.24,0-.46-.17-.51-.41-.24-1.1-.36-2.23-.36-3.37,0-1.45.2-2.88.59-4.26.08-.28.37-.44.64-.36.28.08.44.37.36.64-.36,1.29-.55,2.63-.55,3.98,0,1.06.11,2.12.34,3.14.06.28-.12.56-.4.62-.04,0-.08.01-.11.01ZM291.21,77.44c-.26,0-.49-.2-.52-.47-.14-1.34-.47-2.65-.98-3.89-.11-.27.02-.57.29-.68.27-.11.57.02.68.29.54,1.33.89,2.74,1.05,4.17.03.29-.18.54-.46.57-.02,0-.04,0-.06,0ZM263.28,71.15c-.09,0-.19-.02-.27-.08-.25-.15-.32-.47-.17-.72.76-1.23,1.68-2.34,2.74-3.32.21-.19.54-.18.74.03.19.21.18.54-.03.74-.99.91-1.85,1.95-2.56,3.1-.1.16-.27.25-.44.25ZM288.13,69.81c-.16,0-.31-.07-.41-.2-.83-1.06-1.79-2.01-2.87-2.81-.23-.17-.28-.5-.11-.73.17-.23.5-.28.73-.11,1.16.86,2.19,1.87,3.08,3,.18.23.14.56-.09.73-.1.07-.21.11-.32.11ZM269.35,65.58c-.19,0-.37-.1-.47-.29-.13-.26-.03-.57.23-.7,1.29-.65,2.66-1.12,4.07-1.39.28-.06.56.13.61.41.05.28-.13.56-.41.61-1.32.26-2.6.69-3.8,1.3-.08.04-.16.06-.24.06ZM281.49,64.92c-.06,0-.12-.01-.18-.03-1.26-.47-2.57-.77-3.92-.88-.29-.02-.5-.28-.48-.56.02-.29.27-.5.56-.48,1.44.12,2.85.44,4.2.94.27.1.41.4.3.67-.08.21-.28.34-.49.34Z"/>
  </g>
  <path class="st3" d="M30.84,210.62c-.98,0-1.94-.14-2.86-.41-.28-.08-.43-.37-.35-.65.08-.28.37-.43.65-.35,1.25.37,2.6.46,3.9.27.29-.04.55.15.59.44.04.28-.15.55-.44.59-.49.07-.99.11-1.49.11ZM36.12,209.02c-.17,0-.33-.08-.43-.23-.16-.24-.1-.56.14-.72,1.09-.74,2.02-1.72,2.67-2.85.14-.25.46-.34.71-.19.25.14.34.46.19.71-.73,1.26-1.76,2.37-2.99,3.19-.09.06-.19.09-.29.09ZM24.52,208.2c-.12,0-.25-.04-.35-.14-1.1-.99-1.96-2.24-2.49-3.6-.1-.27.03-.57.3-.68.27-.1.57.03.68.3.47,1.21,1.24,2.32,2.22,3.2.21.19.23.52.04.74-.1.11-.24.17-.39.17ZM40.11,202.04s-.02,0-.03,0c-.29-.01-.51-.26-.5-.55,0-.14.01-.28.01-.42,0-1.18-.25-2.33-.73-3.4-.12-.26,0-.57.26-.69.26-.12.57,0,.69.26.54,1.21.82,2.5.82,3.83,0,.16,0,.31-.01.47-.01.28-.24.5-.52.5ZM21.56,201.59c-.29,0-.52-.23-.52-.52,0-1.5.34-2.93,1.02-4.26.13-.26.45-.36.7-.23.26.13.36.45.23.7-.6,1.18-.91,2.45-.91,3.78,0,.29-.23.52-.52.52ZM36.83,194.7c-.12,0-.23-.04-.33-.12-1.01-.83-2.22-1.44-3.49-1.75-.28-.07-.45-.35-.38-.63.07-.28.35-.45.63-.38,1.43.35,2.78,1.03,3.91,1.96.22.18.25.51.07.73-.1.13-.25.19-.4.19ZM25.21,194.42c-.16,0-.32-.07-.42-.21-.17-.23-.12-.56.11-.73,1.17-.87,2.55-1.48,3.99-1.77.28-.06.56.13.61.41.06.28-.13.56-.41.61-1.29.25-2.52.8-3.57,1.58-.09.07-.2.1-.31.1Z"/>
  <path class="st3" d="M70.48,298.9c-.98,0-1.94-.14-2.86-.41-.28-.08-.43-.37-.35-.65.08-.28.37-.43.65-.35,1.25.37,2.61.46,3.9.27.29-.04.55.15.59.44.04.28-.15.55-.44.59-.49.07-.99.11-1.49.11ZM75.76,297.3c-.17,0-.33-.08-.43-.23-.16-.24-.1-.56.14-.72,1.09-.74,2.02-1.72,2.67-2.85.14-.25.46-.34.71-.19.25.14.34.46.19.71-.73,1.26-1.76,2.37-2.99,3.19-.09.06-.19.09-.29.09ZM64.16,296.48c-.12,0-.25-.04-.35-.14-1.1-.99-1.96-2.24-2.49-3.6-.1-.27.03-.57.3-.68.27-.1.57.03.68.3.47,1.21,1.24,2.32,2.22,3.2.21.19.23.52.04.74-.1.11-.24.17-.39.17ZM79.75,290.32s-.02,0-.03,0c-.29-.01-.51-.26-.5-.55,0-.14.01-.28.01-.42,0-1.18-.25-2.33-.73-3.4-.12-.26,0-.57.26-.69.26-.12.57,0,.69.26.54,1.21.82,2.5.82,3.83,0,.16,0,.31-.01.47-.01.28-.24.5-.52.5ZM61.2,289.88c-.29,0-.52-.23-.52-.52,0-1.5.34-2.93,1.02-4.26.13-.26.45-.36.7-.23.26.13.36.45.23.7-.6,1.18-.91,2.45-.91,3.78,0,.29-.23.52-.52.52ZM76.47,282.98c-.12,0-.23-.04-.33-.12-1.01-.83-2.22-1.44-3.49-1.75-.28-.07-.45-.35-.38-.63.07-.28.35-.45.63-.38,1.43.35,2.78,1.03,3.91,1.96.22.18.25.51.07.73-.1.13-.25.19-.4.19ZM64.85,282.7c-.16,0-.32-.07-.42-.21-.17-.23-.12-.56.11-.73,1.17-.87,2.55-1.48,3.99-1.77.28-.06.56.13.61.41.06.28-.13.56-.41.61-1.29.25-2.52.8-3.57,1.58-.09.07-.2.1-.31.1Z"/>
  <g>
    <path class="st3" d="M107.29,153.7c-.08,0-.16-.02-.24-.06l-18.36-9.45c-.17-.09-.27-.25-.28-.44l-.87-18.02c0-.18.08-.35.23-.46l17.74-12.17c.17-.12.39-.12.57-.01l17.45,10.85c.15.1.25.27.25.45l-.22,19.78c0,.19-.1.35-.26.45l-15.74,9.01c-.08.05-.17.07-.26.07ZM89.43,143.4l17.84,9.18,15.24-8.72.21-19.19-16.92-10.51-17.22,11.81.85,17.43Z"/>
    <path class="st3" d="M123.25,124.91c-.16,0-.32-.08-.42-.22-.17-.23-.11-.56.12-.73l15.36-10.99c.17-.12.4-.13.57-.02l14.61,8.87c.25.15.32.47.18.72-.15.25-.47.33-.72.18l-14.31-8.69-15.08,10.79c-.09.07-.2.1-.3.1Z"/>
    <path class="st3" d="M105.79,113.93h0c-.29,0-.52-.24-.51-.53l.16-9.24c0-.29.25-.51.53-.51.29,0,.52.24.51.53l-.16,9.24c0,.28-.24.51-.52.51Z"/>
    <path class="st3" d="M141.49,155.2c-.09,0-.18-.02-.26-.07l-18.43-10.7c-.25-.14-.33-.46-.19-.71.14-.25.46-.33.71-.19l18.43,10.7c.25.14.33.46.19.71-.1.17-.27.26-.45.26Z"/>
    <path class="st3" d="M70.48,158.96c-.15,0-.3-.07-.41-.2-.18-.22-.14-.55.08-.73l18.19-14.61c.22-.18.55-.14.73.08.18.22.14.55-.08.73l-18.19,14.61c-.1.08-.21.11-.33.11Z"/>
    <g>
      <circle class="st0" cx="142.24" cy="155.14" r="4.01"/>
      <path class="st3" d="M142.24,159.67c-2.5,0-4.53-2.03-4.53-4.53s2.03-4.53,4.53-4.53,4.53,2.03,4.53,4.53-2.03,4.53-4.53,4.53ZM142.24,151.65c-1.92,0-3.49,1.56-3.49,3.49s1.56,3.49,3.49,3.49,3.49-1.56,3.49-3.49-1.56-3.49-3.49-3.49Z"/>
    </g>
    <g>
      <path class="st0" d="M66.47,159.15c0-2.21,1.79-4.01,4.01-4.01s4.01,1.79,4.01,4.01-1.79,4.01-4.01,4.01-4.01-1.79-4.01-4.01Z"/>
      <path class="st3" d="M70.48,163.68c-2.5,0-4.53-2.03-4.53-4.53s2.03-4.53,4.53-4.53,4.53,2.03,4.53,4.53-2.03,4.53-4.53,4.53ZM70.48,155.66c-1.92,0-3.49,1.56-3.49,3.49s1.56,3.49,3.49,3.49,3.49-1.56,3.49-3.49-1.56-3.49-3.49-3.49Z"/>
    </g>
    <g>
      <circle class="st2" cx="138.23" cy="112.8" r="4.01"/>
      <path class="st3" d="M138.23,117.33c-2.5,0-4.53-2.03-4.53-4.53s2.03-4.53,4.53-4.53,4.53,2.03,4.53,4.53-2.03,4.53-4.53,4.53ZM138.23,109.31c-1.92,0-3.49,1.56-3.49,3.49s1.56,3.49,3.49,3.49,3.49-1.56,3.49-3.49-1.56-3.49-3.49-3.49Z"/>
    </g>
    <g>
      <path class="st0" d="M82.93,125.94c0-2.83,2.29-5.12,5.12-5.12s5.12,2.29,5.12,5.12-2.29,5.12-5.12,5.12-5.12-2.29-5.12-5.12Z"/>
      <path class="st3" d="M88.05,131.58c-3.11,0-5.64-2.53-5.64-5.64s2.53-5.64,5.64-5.64,5.64,2.53,5.64,5.64-2.53,5.64-5.64,5.64ZM88.05,121.34c-2.54,0-4.6,2.06-4.6,4.6s2.06,4.6,4.6,4.6,4.6-2.06,4.6-4.6-2.06-4.6-4.6-4.6Z"/>
    </g>
    <path class="st3" d="M118.88,139.16h0c-.29,0-.52-.23-.52-.52l.02-9.42c0-.29.23-.52.52-.52h0c.29,0,.52.23.52.52l-.02,9.42c0,.29-.23.52-.52.52Z"/>
    <path class="st3" d="M150.16,126.05c-.08,0-.17-.02-.25-.06-2.71-1.45-5.39-3.05-7.97-4.74-.24-.16-.31-.48-.15-.72.16-.24.48-.31.72-.15,2.55,1.67,5.2,3.25,7.88,4.69.25.14.35.45.21.71-.09.18-.27.28-.46.28Z"/>
    <path class="st3" d="M79.22,157.11c-.16,0-.31-.07-.41-.2-.18-.23-.13-.56.09-.73l9.52-7.36c.23-.18.56-.13.73.09.18.23.13.56-.09.73l-9.52,7.36c-.1.07-.21.11-.32.11Z"/>
  </g>
  <g>
    <ellipse class="st0" cx="99.48" cy="237.07" rx="25.78" ry="27.15"/>
    <g>
      <path class="st0" d="M119.99,261.03c8.19,6.2,14.09,14.94,21.33,22.25,1.68,1.7,3.71,3.42,6.08,3.32,2.09-.09,4-1.82,4.31-3.91.26-1.68-.44-3.4-1.48-4.74-1.05-1.33-2.43-2.35-3.78-3.36-7.76-5.8-15.2-12.03-22.3-18.65-1.43,1.66-2.86,3.31-4.16,5.09Z"/>
      <path class="st3" d="M147.2,287.13c-2.46,0-4.53-1.75-6.25-3.48-2.66-2.68-5.17-5.59-7.6-8.41-4.19-4.86-8.53-9.88-13.68-13.78-.23-.17-.27-.49-.11-.72,1.31-1.8,2.77-3.49,4.19-5.13.09-.11.23-.17.37-.18.14,0,.28.04.38.14,7.05,6.58,14.54,12.85,22.26,18.62l.12.09c1.33.99,2.7,2.02,3.76,3.37,1.26,1.61,1.84,3.48,1.59,5.14-.36,2.34-2.47,4.26-4.81,4.36-.07,0-.15,0-.22,0ZM120.72,260.93c5.06,3.92,9.31,8.85,13.43,13.62,2.42,2.8,4.92,5.7,7.55,8.36,1.6,1.62,3.53,3.27,5.68,3.17,1.83-.08,3.54-1.63,3.82-3.47.21-1.37-.29-2.95-1.38-4.33-.97-1.24-2.29-2.23-3.56-3.18l-.12-.09c-7.6-5.69-14.98-11.85-21.95-18.32-1.18,1.37-2.38,2.77-3.48,4.24Z"/>
    </g>
    <g>
      <path class="st2" d="M115.71,260.37c.22,1.35,1.01,2.61,2.14,3.38.39.26.83.48,1.3.46.46-.02.88-.26,1.26-.51,2.46-1.62,4.27-4.03,6.04-6.38.51-.68,1.02-1.38,1.21-2.2.14-.63.08-1.3-.11-1.92-.54-1.71-2.4-3.09-4.12-2.57-.91.27-1.6.98-2.24,1.68-1.73,1.91-3.34,3.92-4.81,6.04-.54.77-1.08,1.66-.67,2.02Z"/>
      <path class="st3" d="M119.09,264.74c-.49,0-.99-.18-1.54-.55-1.2-.82-2.06-2.15-2.34-3.58-.54-.73.28-1.9.73-2.55,1.48-2.13,3.11-4.18,4.86-6.09.69-.76,1.45-1.52,2.47-1.83,2.07-.62,4.17,1.04,4.76,2.92.24.75.28,1.51.12,2.19-.22.94-.79,1.72-1.3,2.4-1.69,2.26-3.61,4.82-6.17,6.51-.45.3-.94.57-1.53.59-.03,0-.05,0-.08,0ZM116.08,260.01c.07.08.12.17.14.28.19,1.21.91,2.34,1.92,3.03.38.26.7.38.99.37.33-.01.67-.21.99-.42,2.41-1.59,4.19-3.96,5.91-6.26.47-.63.95-1.28,1.12-2,.11-.5.08-1.07-.1-1.64-.44-1.41-2.02-2.66-3.47-2.23-.77.23-1.39.86-2,1.53-1.71,1.88-3.32,3.89-4.77,5.99-.64.91-.72,1.25-.72,1.36Z"/>
    </g>
    <g>
      <path class="st0" d="M98.52,206.34c-11.24.6-21.34,9.11-25.71,19.49s-2.78,23.03,4.03,32.01c4.47,5.89,13.65,10.92,25.73,9.59,8.44-.94,15.9-6.45,20.74-13.43,3.82-5.5,6.25-12.04,6.38-18.74.13-6.69-3.55-30.4-31.18-28.92ZM113.18,257.77c-12.61,9.09-28.74,3.81-33.69-7.39-3.74-8.46-3.23-16.65-2.31-19.49,1.53-4.72,5.83-14.22,15-17.17,11.11-3.57,19.41.22,23.49,3.52s6.92,8.08,7.9,13.23c1.86,9.83-2.26,21.46-10.38,27.32Z"/>
      <path class="st3" d="M98.64,268.17c-10.7,0-18.39-4.96-22.22-10.01-6.95-9.16-8.55-21.93-4.09-32.53,4.74-11.26,15.25-19.22,26.16-19.81,9.64-.52,17.34,1.94,22.89,7.31,7.19,6.95,8.94,17.19,8.84,22.14-.13,6.53-2.37,13.11-6.48,19.02-5.41,7.79-13.1,12.76-21.12,13.65-1.37.15-2.7.22-3.99.22ZM98.54,206.87h0c-10.52.56-20.66,8.27-25.25,19.17-4.32,10.26-2.76,22.62,3.96,31.49,4.12,5.43,12.92,10.75,25.26,9.38,7.71-.85,15.14-5.67,20.37-13.21,3.93-5.66,6.17-12.22,6.29-18.45.09-4.79-1.59-14.67-8.53-21.37-5.33-5.16-12.77-7.52-22.11-7.01ZM99.12,262.91c-2.06,0-4.13-.27-6.15-.82-6.31-1.71-11.53-6.02-13.96-11.51-3.68-8.34-3.38-16.61-2.33-19.87,1.37-4.22,5.59-14.37,15.34-17.51,12.97-4.17,21.63,1.71,23.97,3.61,4.14,3.36,7.09,8.29,8.08,13.54,1.95,10.3-2.51,22.01-10.59,27.84h0c-4.31,3.1-9.32,4.72-14.37,4.72ZM100.96,212.79c-2.59,0-5.47.4-8.63,1.41-9.29,2.99-13.35,12.77-14.67,16.84-.85,2.62-1.41,10.75,2.29,19.12,2.3,5.21,7.26,9.29,13.27,10.92,6.67,1.81,13.83.45,19.64-3.74h0c7.77-5.6,12.05-16.87,10.17-26.8-.95-5-3.76-9.71-7.71-12.92-1.68-1.36-6.73-4.84-14.37-4.84ZM113.18,257.77h0,0Z"/>
    </g>
    <g class="st1">
      <path class="st3" d="M115.93,254.15c-.57.42-1.16.8-1.74,1.16-1.74,1.07-3.61,1.93-5.55,2.59-.83.28-1.66.53-2.51.75-9.89,2.6-16.31-.31-24.04-6.13-.65-.49-1.29-1.02-1.9-1.57.29.55.59,1.1.88,1.65.97,1.49,2.01,2.93,3.1,4.34,1.71,1.51,3.55,2.87,5.61,3.88,2.97,1.46,6.16,2.05,9.45,2.25.87.05,1.75.09,2.62.02.09,0,.17-.02.26-.03.08-.08.18-.14.32-.16,1.47-.23,2.9-.59,4.3-1.1,2.43-.88,4.84-2.18,6.81-3.85.47-.4.92-.77,1.32-1.25.43-.51.81-1.05,1.19-1.59.12-.17.23-.35.35-.52-.12-.17-.27-.32-.46-.42Z"/>
    </g>
    <path class="st3" d="M147.23,284.4c-.4,0-.8-.05-1.18-.21-.46-.18-.85-.5-1.18-.78-1.17-1-2.24-2.12-3.18-3.34-.06-.08-.04-.19.03-.24.08-.06.19-.04.24.03.92,1.2,1.97,2.31,3.13,3.29.32.28.68.56,1.08.72.77.31,1.7.15,2.45.02.09-.02.18.05.2.14.02.09-.05.18-.14.2-.44.08-.95.16-1.45.16Z"/>
    <g class="st1">
      <path class="st3" d="M126.88,258.53c-.21-.87-1.49-1.04-1.91-.25-.68,1.12-1.42,2.2-2.01,3.38-.04.08-.08.15-.13.22-1.17,1.36,1,2.89,1.93,1.33.77-1.05,1.32-2.23,1.81-3.43.01-.02.14-.3.2-.44.14-.24.18-.54.11-.81Z"/>
    </g>
  </g>
  <g>
    <g>
      <path class="st3" d="M83.02,236.6s-.05-.09-.04-.14c.01-.1.11-.17.21-.16l16.04,2.18,9.61-7.59c.08-.06.2-.05.26.03h0c.06.08.05.2-.03.26l-9.67,7.64s-.09.05-.14.04l-16.12-2.19c-.05,0-.09-.03-.12-.07Z"/>
      <path class="st3" d="M98.46,251.98s-.04-.08-.04-.13l.72-13.06c0-.1.09-.18.2-.18.1,0,.18.09.18.2l-.72,13.06c0,.1-.09.18-.2.18-.06,0-.11-.03-.14-.07Z"/>
    </g>
    <g>
      <path class="st2" d="M81.88,234.87c1.01-.79,2.45-.63,3.22.35s.58,2.42-.43,3.21-2.45.63-3.22-.35-.58-2.42.43-3.21Z"/>
      <path class="st3" d="M81.3,238.19c-.83-1.06-.62-2.62.46-3.47s2.65-.68,3.48.39.62,2.62-.46,3.47-2.65.68-3.48-.39ZM84.95,235.34c-.7-.9-2.03-1.04-2.96-.32s-1.1,2.05-.4,2.95,2.03,1.04,2.96.32,1.1-2.05.4-2.95Z"/>
    </g>
    <g>
      <path class="st0" d="M107.34,229.64c1.01-.79,2.45-.63,3.22.35s.58,2.42-.43,3.21-2.45.63-3.22-.35-.58-2.42.43-3.21Z"/>
      <path class="st3" d="M106.76,232.96c-.83-1.06-.62-2.62.46-3.47s2.65-.68,3.48.39.62,2.62-.46,3.47-2.65.68-3.48-.39ZM110.41,230.11c-.7-.9-2.03-1.04-2.96-.32s-1.1,2.05-.4,2.95,2.03,1.04,2.96.32,1.1-2.05.4-2.95Z"/>
    </g>
    <g>
      <path class="st0" d="M96.71,252.3c1.01-.79,2.45-.63,3.22.35s.58,2.42-.43,3.21-2.45.63-3.22-.35-.58-2.42.43-3.21Z"/>
      <path class="st3" d="M96.13,255.63c-.83-1.06-.62-2.62.46-3.47s2.65-.68,3.48.39.62,2.62-.46,3.47-2.65.68-3.48-.39ZM99.78,252.77c-.7-.9-2.03-1.04-2.96-.32s-1.1,2.05-.4,2.95,2.03,1.04,2.96.32,1.1-2.05.4-2.95Z"/>
    </g>
    <path class="st3" d="M107.72,231.52s-.01-.02-.01-.04c-.02-.31.1-.63.33-.88.23-.25.53-.4.84-.41.03,0,.06.03.07.06,0,.03-.03.06-.06.07-.28.01-.55.15-.75.37-.2.22-.31.51-.3.79,0,.03-.02.06-.06.07-.02,0-.04,0-.05-.02Z"/>
    <path class="st3" d="M82.09,237.27s0-.01-.01-.02c-.12-.4-.03-.87.25-1.26.23-.31.57-.58,1.03-.78.03-.01.07,0,.08.03.01.03,0,.07-.03.08-.43.19-.76.44-.98.74-.26.36-.34.78-.23,1.15.01.03,0,.07-.04.08-.03,0-.05,0-.07-.02Z"/>
    <path class="st3" d="M97.01,254.85c-.26-.33-.33-.79-.19-1.18.14-.39.49-.71.9-.8.03,0,.07.01.07.05,0,.03-.01.07-.05.07-.37.08-.69.36-.81.72-.12.35-.06.77.17,1.06,0,0,0,0,0,0,.02.03.02.07-.01.09-.03.02-.07.02-.09-.01h0Z"/>
    <g class="st1">
      <path class="st3" d="M109.01,233.72c.13-.12.13-.37,0-.49-.1-.11-.27-.11-.4-.15-.05,0-.14-.02-.18-.02-.4-.13-.89-.6-1.02-.9-.25-.42-.29-.47-.4-.94.04.17,0,0-.01-.11,0-.03,0-.12-.01-.17-.08-.36-.64-.32-.67.05-.12.62.17,1.23.53,1.72.31.44.73.82,1.26.97.16.04.3.13.46.14.15,0,.34.03.45-.1Z"/>
    </g>
    <g class="st1">
      <path class="st3" d="M98.82,243.11c-.09-.13-.25-.12-.39-.13-.22-.02-.25-.04-.26-.04-.73-.17-1.08-.31-1.66-.75-.76-.6-1.4-1.67-1.56-2.63-.05-.32-.05-.47-.04-.6,0-.14.03-.29-.07-.41-.18-.25-.61-.13-.63.18-.1,1.3.39,2.65,1.33,3.56.69.73,1.68,1.21,2.67,1.31.19,0,.4.07.57-.05.13-.1.16-.31.05-.44Z"/>
    </g>
    <g class="st1">
      <path class="st3" d="M83.94,238.78c.11-.26-.12-.54-.39-.51-.4-.04-.32-.03-.67-.17-.47-.21-1.11-.76-1.13-1.8,0-.02,0-.03,0-.04.01-.18.08-.37-.05-.52-.19-.26-.63-.13-.66.18-.37,1.27.44,2.63,1.71,2.97.22.06.45.1.67.11.2.04.44-.01.52-.22Z"/>
    </g>
    <g class="st1">
      <path class="st3" d="M99,256.23c.16-.21.07-.53-.18-.63-.35-.07-.18.01-.5-.04-.43-.05-.45-.06-.86-.24-.38-.27-.36-.32-.64-.9-.13-.29-.12-.27-.15-.39-.07-.35-.09-.35-.11-.51.05-.66-.87-.7-.85-.04,0,.23.03.46.1.69.08.22.18.44.27.66.36.71.96,1.32,1.77,1.46.22.05.34.11.76.1.15,0,.3-.04.39-.17Z"/>
    </g>
    <circle class="st0" cx="98.96" cy="239.12" r="4.39"/>
    <path class="st3" d="M98.42,243.97c-.48-.07-.95-.2-1.39-.4-.13-.06-.19-.21-.13-.34.06-.13.21-.19.35-.13.6.27,1.26.41,1.92.4.14,0,.26.11.26.26,0,.14-.11.26-.26.26-.25,0-.5-.01-.75-.05ZM101.14,243.53c-.08-.01-.16-.06-.2-.14-.06-.13-.01-.29.12-.35.59-.29,1.11-.72,1.51-1.23.09-.11.25-.13.37-.05.11.09.13.25.05.37-.45.58-1.03,1.05-1.7,1.38-.05.02-.1.03-.15.02ZM95.45,242.34c-.06,0-.12-.04-.16-.09-.48-.57-.82-1.24-.99-1.95-.03-.14.05-.28.19-.31.14-.03.28.05.31.19.15.63.46,1.23.88,1.74.09.11.08.27-.03.37-.06.05-.13.07-.2.06ZM103.59,240.34s0,0-.01,0c-.14-.03-.23-.16-.21-.3.01-.07.02-.14.03-.21.08-.59.04-1.17-.13-1.74-.04-.14.04-.28.18-.32.14-.04.28.04.32.18.19.64.24,1.29.15,1.95-.01.08-.02.16-.04.23-.03.14-.15.23-.29.21ZM94.43,238.87c-.14-.02-.24-.15-.22-.29.1-.74.37-1.43.8-2.04.08-.12.24-.15.36-.06.12.08.15.24.06.36-.38.54-.62,1.15-.71,1.81-.02.14-.15.24-.29.22ZM102.46,236.48c-.06,0-.11-.04-.16-.08-.44-.48-1-.86-1.61-1.1-.13-.05-.2-.2-.15-.34.05-.13.2-.2.34-.15.68.27,1.31.7,1.8,1.23.1.11.09.27-.01.37-.06.06-.14.08-.21.07ZM96.72,235.56c-.08-.01-.15-.06-.19-.13-.07-.13-.02-.28.1-.35.64-.35,1.37-.56,2.1-.61.14,0,.27.1.28.24,0,.14-.1.27-.24.28-.66.04-1.3.23-1.88.54-.05.03-.11.04-.16.03Z"/>
  </g>
</svg>